<?xml version="1.0" encoding="UTF-8"?>
<svg id="Capa_1" data-name="Capa 1" xmlns="http://www.w3.org/2000/svg" viewBox="0 0 525.04 127.29">
  <defs>
    <style>
      .cls-1 {
        fill: #380906;
      }
    </style>
  </defs>
  <path class="cls-1" d="M143.4,110.59h-1.62c-.58-2.61-2.17-3.93-5.22-3.93-3.65,0-5.78,2.96-5.78,7.37,0,4.69,2.03,7.46,5.89,7.46,2.61,0,4.53-1.62,5.27-4.57h1.64c-.88,3.88-3.35,5.91-7.21,5.91-4.62,0-7.16-3.37-7.16-8.76,0-5.71,2.75-8.76,7.74-8.76,3.51,0,5.91,1.87,6.45,5.27Z"/>
  <path class="cls-1" d="M156.76,116.41c0,3.79-2.22,6.31-5.52,6.31s-5.57-2.29-5.57-6.31c0-3.72,2.06-6.31,5.54-6.31s5.54,2.49,5.54,6.31ZM151.21,121.47c2.63,0,4.07-2.12,4.07-5.01,0-3.14-1.34-5.11-4.09-5.11-2.5,0-4.04,1.99-4.04,5.06s1.55,5.06,4.07,5.06Z"/>
  <path class="cls-1" d="M171.66,110.1c2.49,0,3.72,1.29,3.72,4.6v7.69h-1.39v-8.29c0-1.83-.76-2.75-2.5-2.75-1.89,0-3.56,1.13-3.56,4.64v6.4h-1.39v-8.36c0-1.8-.76-2.68-2.54-2.68s-3.51,1.11-3.51,4.48v6.56h-1.39v-11.97h1.39v1.8h.05c.74-1.36,2.13-2.13,3.72-2.13,1.69,0,2.86.62,3.49,2.31.81-1.55,2.17-2.31,3.9-2.31Z"/>
  <path class="cls-1" d="M188.85,116.41c0,3.79-2.22,6.31-5.52,6.31s-5.57-2.29-5.57-6.31c0-3.72,2.06-6.31,5.54-6.31s5.54,2.49,5.54,6.31ZM183.3,121.47c2.63,0,4.07-2.12,4.07-5.01,0-3.14-1.34-5.11-4.09-5.11-2.5,0-4.04,1.99-4.04,5.06s1.55,5.06,4.07,5.06Z"/>
  <path class="cls-1" d="M200.63,105.76h1.39v16.63h-1.39v-2.1h-.05c-.76,1.48-2.5,2.43-4.16,2.43-3.49,0-5.41-2.29-5.41-6.26,0-3.7,1.99-6.35,5.34-6.35,1.73,0,3.42.83,4.27,2.24v-6.58ZM196.57,111.35c-2.38,0-4.07,1.82-4.07,5.13,0,3.53,1.85,4.99,4.09,4.99,2.43,0,4.04-2.03,4.04-5.11,0-2.84-1.64-5.01-4.07-5.01Z"/>
  <path class="cls-1" d="M207.17,105.76v2.06h-1.52v-2.06h1.52ZM205.72,110.43h1.39v11.97h-1.39v-11.97Z"/>
  <path class="cls-1" d="M219.88,105.76h1.39v16.63h-1.39v-2.1h-.05c-.76,1.48-2.5,2.43-4.16,2.43-3.49,0-5.41-2.29-5.41-6.26,0-3.7,1.99-6.35,5.34-6.35,1.73,0,3.42.83,4.27,2.24v-6.58ZM215.81,111.35c-2.38,0-4.07,1.82-4.07,5.13,0,3.53,1.85,4.99,4.09,4.99,2.43,0,4.04-2.03,4.04-5.11,0-2.84-1.64-5.01-4.07-5.01Z"/>
  <path class="cls-1" d="M233.97,113.73v6.7c0,.65.14,1.02.6,1.02.21,0,.49-.02.85-.18v1.09c-.3.09-.74.23-1.16.23-1.15,0-1.64-.51-1.66-1.85-1.18,1.32-2.73,1.99-4.46,1.99-2.31,0-4-1.32-4-3.44,0-1.99,1.2-3.23,4.64-3.67l1.29-.16c1.96-.25,2.49-.3,2.49-1.66,0-1.57-1.02-2.43-2.98-2.43-2.24,0-3.28.88-3.49,2.7h-1.41c.18-2.52,1.96-3.95,4.92-3.95s4.34,1.39,4.34,3.63ZM228.24,121.47c2.49,0,4.34-1.34,4.34-3.42v-1.94c-.69.3-1.34.49-3.6.67-2.22.19-3.35.99-3.35,2.54,0,1.29,1.04,2.15,2.61,2.15Z"/>
  <path class="cls-1" d="M246.84,105.76h1.39v16.63h-1.39v-2.1h-.05c-.76,1.48-2.5,2.43-4.16,2.43-3.49,0-5.41-2.29-5.41-6.26,0-3.7,1.99-6.35,5.34-6.35,1.73,0,3.42.83,4.27,2.24v-6.58ZM242.78,111.35c-2.38,0-4.07,1.82-4.07,5.13,0,3.53,1.85,4.99,4.09,4.99,2.43,0,4.04-2.03,4.04-5.11,0-2.84-1.64-5.01-4.07-5.01Z"/>
  <path class="cls-1" d="M269.3,116.39c0,3.7-1.99,6.33-5.31,6.33-1.73,0-3.4-.79-4.3-2.24v6.63h-1.39v-16.68h1.39v2.1h.05c.81-1.5,2.52-2.43,4.16-2.43,3.49,0,5.41,2.31,5.41,6.28ZM263.73,121.47c2.56,0,4.09-2.01,4.09-5.11,0-3.56-1.85-5.01-4.11-5.01-2.4,0-4.02,2.03-4.02,5.11,0,2.89,1.66,5.01,4.04,5.01Z"/>
  <path class="cls-1" d="M281.48,113.73v6.7c0,.65.14,1.02.6,1.02.21,0,.49-.02.85-.18v1.09c-.3.09-.74.23-1.16.23-1.15,0-1.64-.51-1.66-1.85-1.18,1.32-2.73,1.99-4.46,1.99-2.31,0-4-1.32-4-3.44,0-1.99,1.2-3.23,4.64-3.67l1.29-.16c1.96-.25,2.49-.3,2.49-1.66,0-1.57-1.02-2.43-2.98-2.43-2.24,0-3.28.88-3.49,2.7h-1.41c.18-2.52,1.96-3.95,4.92-3.95s4.34,1.39,4.34,3.63ZM275.75,121.47c2.49,0,4.34-1.34,4.34-3.42v-1.94c-.69.3-1.34.49-3.6.67-2.22.19-3.35.99-3.35,2.54,0,1.29,1.04,2.15,2.61,2.15Z"/>
  <path class="cls-1" d="M290.51,111.6h-.16c-2.59,0-3.79,1.71-3.79,4.85v5.94h-1.39v-11.97h1.39v2.24h.05c.72-1.78,1.73-2.56,3.86-2.56h.05v1.5Z"/>
  <path class="cls-1" d="M302.02,113.73v6.7c0,.65.14,1.02.6,1.02.21,0,.49-.02.85-.18v1.09c-.3.09-.74.23-1.16.23-1.15,0-1.64-.51-1.66-1.85-1.18,1.32-2.73,1.99-4.46,1.99-2.31,0-4-1.32-4-3.44,0-1.99,1.2-3.23,4.64-3.67l1.29-.16c1.96-.25,2.49-.3,2.49-1.66,0-1.57-1.02-2.43-2.98-2.43-2.24,0-3.28.88-3.49,2.7h-1.41c.18-2.52,1.96-3.95,4.92-3.95s4.34,1.39,4.34,3.63ZM296.29,121.47c2.49,0,4.34-1.34,4.34-3.42v-1.94c-.69.3-1.34.49-3.6.67-2.22.19-3.35.99-3.35,2.54,0,1.29,1.04,2.15,2.61,2.15Z"/>
  <path class="cls-1" d="M312.56,107.1h1.39v3.33h2.24v1.16h-2.24v8.52c0,1.34.55,1.36,1.27,1.36.37,0,.67-.07,1.06-.16v1.13c-.35.07-.88.28-1.59.28-1.52,0-2.13-.83-2.13-2.31v-8.82h-1.69v-1.16h1.69v-3.33Z"/>
  <path class="cls-1" d="M318.5,110.43h1.39v7.95c0,1.92.88,3.1,3.07,3.1s3.65-1.78,3.65-4.57v-6.47h1.39v11.97h-1.39v-1.66c-1.27,1.48-2.33,1.99-3.88,1.99-2.77,0-4.23-1.5-4.23-4.37v-7.92Z"/>
  <path class="cls-1" d="M337.77,105.76h1.39v6.33c1.39-1.5,2.5-1.99,3.86-1.99,2.52,0,4.25,1.41,4.25,4.07v8.22h-1.39v-7.9c0-1.96-.85-3.14-3.07-3.14-2.03,0-3.65,1.43-3.65,4.2v6.84h-1.39v-16.63Z"/>
  <path class="cls-1" d="M360.92,116.41c0,3.79-2.22,6.31-5.52,6.31s-5.57-2.29-5.57-6.31c0-3.72,2.06-6.31,5.54-6.31s5.54,2.49,5.54,6.31ZM355.37,121.47c2.63,0,4.07-2.12,4.07-5.01,0-3.14-1.34-5.11-4.09-5.11-2.5,0-4.04,1.99-4.04,5.06s1.55,5.06,4.07,5.06Z"/>
  <path class="cls-1" d="M372.7,112.53v-2.1h1.39v10.95c0,3.9-1.83,5.91-5.61,5.91-2.86,0-4.85-1.43-5.06-3.44h1.48c.3,1.41,1.36,2.19,3.58,2.19,2.84,0,4.23-1.52,4.23-5.04v-.53c-.9,1.41-2.52,2.24-4.27,2.24-3.37,0-5.34-2.61-5.34-6.33,0-4.04,1.96-6.28,5.41-6.28,1.66,0,3.4.95,4.16,2.43h.05ZM372.7,116.45c0-3.05-1.57-5.11-4.07-5.11-2.36,0-4.07,1.64-4.07,4.99s1.57,5.13,4.09,5.13c2.38,0,4.04-2.17,4.04-5.01Z"/>
  <path class="cls-1" d="M386.79,113.73v6.7c0,.65.14,1.02.6,1.02.21,0,.49-.02.85-.18v1.09c-.3.09-.74.23-1.15.23-1.16,0-1.64-.51-1.66-1.85-1.18,1.32-2.73,1.99-4.46,1.99-2.31,0-4-1.32-4-3.44,0-1.99,1.2-3.23,4.64-3.67l1.29-.16c1.96-.25,2.5-.3,2.5-1.66,0-1.57-1.02-2.43-2.98-2.43-2.24,0-3.28.88-3.49,2.7h-1.41c.18-2.52,1.96-3.95,4.92-3.95s4.34,1.39,4.34,3.63ZM381.06,121.47c2.5,0,4.34-1.34,4.34-3.42v-1.94c-.69.3-1.34.49-3.6.67-2.22.19-3.35.99-3.35,2.54,0,1.29,1.04,2.15,2.61,2.15Z"/>
  <path class="cls-1" d="M395.83,111.6h-.16c-2.59,0-3.79,1.71-3.79,4.85v5.94h-1.39v-11.97h1.39v2.24h.05c.72-1.78,1.73-2.56,3.86-2.56h.05v1.5Z"/>
  <path class="cls-1" d="M141.35,41.95v44.21h-16.64v-40.05c0-5.72-4.45-10.58-10.16-10.8-7.94-.31-13.73,4.96-13.73,14.13v36.72h-16.64V22.93h15.92v9.27h.24c4.04-7.72,11.05-10.93,19.01-10.93,13.43,0,21.99,8.79,21.99,20.68Z"/>
  <path class="cls-1" d="M216.09,42.19h-16.28c-.95-6.3-4.64-8.32-11.29-8.32-6.3,0-10.1,1.54-10.1,6.18,0,4.28,8.08,5.7,16.04,7.25,18.03,3.4,23.37,9.56,23.53,18.27.2,11.16-8.57,20.41-19.66,21.74-23.57,2.82-38.45-6.01-38.45-21.34h17.11c0,5.11,3.09,9.27,13.67,9.27,6.66,0,10.7-2.73,10.7-6.54,0-4.16-5.59-5.58-17.11-7.72-14.74-2.61-22.1-8.2-22.1-18.54,0-12.48,9.27-21.15,25.55-21.15,19.01,0,27.69,8.08,28.4,20.92Z"/>
  <path class="cls-1" d="M254.11,22.93v39.57c0,6.22,5.04,11.46,11.25,11.28,7.26-.21,12.4-5.63,12.4-14.02V22.93h16.64v63.22h-15.92v-8.91h-.24c-3.92,6.77-10.34,10.58-19.25,10.58-13.67,0-21.51-8.56-21.51-22.82V22.93h16.64Z"/>
  <path class="cls-1" d="M334.32.83v85.33h-16.64V.83h16.64Z"/>
  <path class="cls-1" d="M408.71,74.39c0,6.18,1.31,8.32,3.68,9.27v2.49h-17.94c-.83-2.49-1.43-4.75-1.54-7.49-6.06,6.54-12.36,9.15-20.44,9.15-11.53,0-19.25-7.13-19.25-18.42,0-8.2,2.97-17.94,19.85-20.44l11.88-1.78c6.18-.95,7.49-2.14,7.49-5.35,0-4.4-2.73-7.25-10.93-7.25-6.18,0-9.63,2.73-10.22,8.8h-16.04c1.31-13.31,7.61-22.1,27.81-22.1,16.28,0,25.67,6.89,25.67,17.83v35.3ZM392.43,63.22v-7.84c-2.85,1.78-5.47,2.61-11.88,3.57-6.65.95-10.69,3.33-10.7,9.38,0,4.11,3.2,7.5,7.31,7.61,7.5.19,15.27-4.84,15.27-12.71Z"/>
  <path class="cls-1" d="M447.92,0v15.45h-16.64V0h16.64ZM447.92,22.93v63.22h-16.64V22.93h16.64Z"/>
  <path class="cls-1" d="M523.14,42.19h-16.28c-.95-6.3-4.64-8.32-11.29-8.32-6.3,0-10.1,1.54-10.1,6.18,0,4.28,8.08,5.7,16.04,7.25,18.03,3.4,23.37,9.56,23.53,18.27.2,11.16-8.57,20.41-19.66,21.74-23.57,2.82-38.45-6.01-38.45-21.34h17.11c0,5.11,3.09,9.27,13.67,9.27,6.65,0,10.7-2.73,10.7-6.54,0-4.16-5.58-5.58-17.11-7.72-14.74-2.61-22.1-8.2-22.1-18.54,0-12.48,9.27-21.15,25.55-21.15,19.01,0,27.69,8.08,28.4,20.92Z"/>
  <path class="cls-1" d="M65.98,86.16h0s-18.12,0-18.12,0h0c-.16-9.76-8.12-17.59-17.88-17.59h-10.92l-.29,17.59H0V.83h0c10.76,0,19.49,8.73,19.49,19.49v14.64s5.71,2.09,5.71,2.09c11.38,4.15,21.64,11.07,29.26,20.48,4.42,5.45,7.74,11.22,9.58,17.62,1.14,3.97,1.94,7.85,1.94,11.02ZM19.49,36.64v17.19h12.35c1.55,0,2.18-2,.91-2.89l-13.26-14.3Z"/>
</svg>